<?xml version="1.0" encoding="UTF-8"?>
<svg width="14px" height="12px" viewBox="0 0 14 12" version="1.1" xmlns="http://www.w3.org/2000/svg" xmlns:xlink="http://www.w3.org/1999/xlink">
    <!-- Generator: Sketch 42 (36781) - http://www.bohemiancoding.com/sketch -->
    <title>Shape</title>
    <desc>Created with Sketch.</desc>
    <defs></defs>
    <g id="Page-1" stroke="none" stroke-width="1" fill="none" fill-rule="evenodd">
        <g id="home" fill-rule="nonzero" fill="#FFFFFF">
            <g id="Index.fw-Str%E1nka%201">
                <path d="M11.9375,7.0816 C11.9375,7.0637 11.9375,7.0459 11.9302,7.028 L7.2061,2.7969 L2.0734,7.028 C2.0734,7.0459 2.0645,7.0637 2.0645,7.0816 L2.0645,11.3662 C2.0645,11.6786 2.3233,11.9375 2.6357,11.9375 L6.0635,11.9375 L6.0635,8.5098 L8.3486,8.5098 L8.3486,11.9375 L11.4688,11.9375 C11.7251,11.9375 11.9375,11.6786 11.9375,11.3662 L11.9375,7.0816 L11.9375,7.0816 Z M13.9281,6.4656 C14.0263,6.3496 14.0084,6.1621 13.8924,6.0639 L11.9375,4.4393 L11.9375,0.7974 C11.9375,0.6367 11.835,0.5117 11.7031,0.5117 L10.2969,0.5117 C10.165,0.5117 10.0625,0.6367 10.0625,0.7974 L10.0625,2.538 L7.8845,0.717 C7.5095,0.4046 6.9025,0.4046 6.5276,0.717 L0.1096,6.0639 C-0.0065,6.1621 -0.0244,6.3496 0.0739,6.4656 L0.6273,7.1262 C0.6719,7.1797 0.7433,7.2155 0.8148,7.2244 C0.8951,7.2333 0.9665,7.2065 1.029,7.1619 L7.2061,2.0114 L12.973,7.1619 C13.0265,7.2065 13.089,7.2244 13.1604,7.2244 L13.1872,7.2244 C13.2586,7.2155 13.33,7.1797 13.3746,7.1262 L13.9281,6.4656 L13.9281,6.4656 Z" id="Shape"></path>
            </g>
        </g>
    </g>
</svg>