<?xml version="1.0" encoding="UTF-8"?>
<svg width="16px" height="16px" viewBox="0 0 16 16" version="1.1" xmlns="http://www.w3.org/2000/svg" xmlns:xlink="http://www.w3.org/1999/xlink">
    <!-- Generator: Sketch 42 (36781) - http://www.bohemiancoding.com/sketch -->
    <title>Shape</title>
    <desc>Created with Sketch.</desc>
    <defs></defs>
    <g id="Page-1" stroke="none" stroke-width="1" fill="none" fill-rule="evenodd">
        <g id="home" fill-rule="nonzero" fill="#FFFFFF">
            <g id="Index.fw-Str%E1nka%201">
                <g id="invoices">
                    <g id="Index.fw-Str%E1nka%201">
                        <path d="M15.2813,4.0625 L10.9375,4.0625 C10.6709,4.0625 10.3291,4.1787 10.0625,4.336 L10.0625,0.7188 C9.9375,0.3565 9.6436,0.0625 9.2813,0.0625 L5.9375,0.0625 C5.5752,0.0625 5.0693,0.2744 4.6833,0.5274 L0.5986,4.6758 C0.3457,5.0694 0.1338,5.5752 0.1338,5.9375 L0.1338,12.2813 C0.1338,12.6436 0.4277,12.9375 0.79,12.9375 L6.0625,12.9375 L6.0625,15.2813 C6.0625,15.6436 6.3564,15.9375 6.7188,15.9375 L15.2813,15.9375 C15.6436,15.9375 15.9375,15.6436 15.9375,15.2813 L15.9375,4.7188 C15.9375,4.3565 15.6436,4.0625 15.2813,4.0625 L15.2813,4.0625 Z M10.0625,5.6308 L9.9375,8.0625 L7.6431,8.0625 L10.0625,5.6308 L10.0625,5.6308 Z M4.7998,1.9751 L4.7998,4.9375 L1.848,4.9375 L4.7998,1.9751 L4.7998,1.9751 Z M6.5273,7.7697 C6.2744,8.0694 6.0625,8.5752 6.0625,8.9375 L6.0625,12.0625 L1.0088,12.0625 L1.0088,5.9805 L5.1157,5.9805 C5.639,5.9805 6.0625,5.6308 6.0625,5.1997 L6.0625,0.9375 L9.0625,0.9375 L9.0625,5.1997 L6.5273,7.7697 L6.5273,7.7697 Z M15.0625,15.0625 L6.9375,15.0625 L6.9375,8.9375 L10.2813,8.9375 C10.6436,8.9375 10.9375,8.6436 10.9375,8.2813 L10.9375,5.0625 L15.0625,5.0625 L15.0625,15.0625 L15.0625,15.0625 Z" id="Shape"></path>
                    </g>
                </g>
            </g>
        </g>
    </g>
</svg>