<?xml version="1.0" encoding="UTF-8"?>
<svg width="15px" height="15px" viewBox="0 0 15 15" version="1.1" xmlns="http://www.w3.org/2000/svg" xmlns:xlink="http://www.w3.org/1999/xlink">
    <!-- Generator: Sketch 42 (36781) - http://www.bohemiancoding.com/sketch -->
    <title>Shape</title>
    <desc>Created with Sketch.</desc>
    <defs></defs>
    <g id="Page-1" stroke="none" stroke-width="1" fill="none" fill-rule="evenodd">
        <g id="settings" fill-rule="nonzero" fill="#FFFFFF">
            <g id="Index.fw-Str%E1nka%201">
                <path d="M3.4076,12.1702 C3.4076,12.4832 3.1478,12.7425 2.8344,12.7425 C2.5209,12.7425 2.2611,12.4832 2.2611,12.1702 C2.2611,11.8572 2.5209,11.5979 2.8344,11.5979 C3.1478,11.5979 3.4076,11.8572 3.4076,12.1702 L3.4076,12.1702 Z M9.1758,8.4147 C8.0025,7.9497 7.062,7.0109 6.5963,5.8395 L0.4966,11.9288 C0.2816,12.1434 0.1563,12.4384 0.1563,12.7425 C0.1563,13.0465 0.2816,13.3416 0.4966,13.5472 L1.446,14.5129 C1.661,14.7186 1.9565,14.8438 2.2611,14.8438 C2.5657,14.8438 2.8612,14.7186 3.0673,14.5129 L9.1758,8.4147 L9.1758,8.4147 Z M14.8438,4.5251 C14.8438,4.3463 14.7471,4.2121 14.5679,4.2121 C14.3888,4.2121 12.3108,5.5176 12.0152,5.6875 L10.2865,4.7307 L10.2865,2.7278 L12.9109,1.2167 C12.9915,1.163 13.0542,1.0647 13.0542,0.9663 C13.0542,0.859 13.0004,0.7785 12.9109,0.7159 C12.3645,0.3493 11.5136,0.1563 10.8597,0.1563 C8.6474,0.1563 6.847,1.9499 6.847,4.1585 C6.847,6.3671 8.6474,8.1643 10.8597,8.1643 C12.5526,8.1643 14.0842,7.0645 14.6485,5.4729 C14.7471,5.1868 14.8438,4.8202 14.8438,4.5251 L14.8438,4.5251 Z" id="Shape"></path>
            </g>
        </g>
    </g>
</svg>