<?xml version="1.0" encoding="UTF-8"?>
<svg width="17px" height="16px" viewBox="0 0 17 16" version="1.1" xmlns="http://www.w3.org/2000/svg" xmlns:xlink="http://www.w3.org/1999/xlink">
    <!-- Generator: Sketch 42 (36781) - http://www.bohemiancoding.com/sketch -->
    <title>Shape</title>
    <desc>Created with Sketch.</desc>
    <defs></defs>
    <g id="Page-1" stroke="none" stroke-width="1" fill="none" fill-rule="evenodd">
        <g id="home" transform="translate(-17.000000, 0.000000)" fill-rule="nonzero" fill="#FFFFFF">
            <g id="Index.fw-Str%E1nka%201">
                <g id="invoices">
                    <g id="Index.fw-Str%E1nka%201">
                        <g id="subjects" transform="translate(17.000000, 0.000000)">
                            <g id="Index.fw-Str%E1nka%201">
                                <path d="M5.3438,7.9941 C4.8867,7.3292 4.6318,6.5314 4.6318,5.7246 C4.6318,5.5296 4.6494,5.3345 4.6758,5.1395 C4.2979,5.2725 3.9111,5.3434 3.5068,5.3434 C2.3203,5.3434 1.4063,4.5898 1.2217,4.5898 C0.105,4.5898 0.1318,7.0012 0.1318,7.7193 C0.1318,8.7034 0.958,9.1289 1.8369,9.1289 L3.0146,9.1289 C3.6035,8.4197 4.4297,8.0207 5.3438,7.9941 L5.3438,7.9941 Z M14.7568,13.6414 C14.7568,11.6378 14.291,8.5615 11.7158,8.5615 C11.417,8.5615 10.3271,9.7938 8.5693,9.7938 C6.8115,9.7938 5.7217,8.5615 5.4229,8.5615 C2.8477,8.5615 2.3818,11.6378 2.3818,13.6414 C2.3818,15.0776 3.3223,15.9375 4.7285,15.9375 L12.4102,15.9375 C13.8164,15.9375 14.7568,15.0776 14.7568,13.6414 L14.7568,13.6414 Z M5.7568,2.3203 C5.7568,1.0703 4.7461,0.0625 3.5068,0.0625 C2.2676,0.0625 1.2568,1.0703 1.2568,2.3203 C1.2568,3.5703 2.2676,4.5898 3.5068,4.5898 C4.7461,4.5898 5.7568,3.5703 5.7568,2.3203 L5.7568,2.3203 Z M11.9443,5.7246 C11.9443,3.8452 10.4326,2.3203 8.5693,2.3203 C6.7061,2.3203 5.1943,3.8452 5.1943,5.7246 C5.1943,7.6041 6.7061,9.1289 8.5693,9.1289 C10.4326,9.1289 11.9443,7.6041 11.9443,5.7246 L11.9443,5.7246 Z M17.0068,7.7193 C17.0068,7.0012 17.0336,4.5898 15.917,4.5898 C15.7324,4.5898 14.8184,5.3434 13.6318,5.3434 C13.2275,5.3434 12.8408,5.2725 12.4629,5.1395 C12.4893,5.3345 12.5068,5.5296 12.5068,5.7246 C12.5068,6.5314 12.252,7.3292 11.7949,7.9941 C12.709,8.0207 13.5352,8.4197 14.124,9.1289 L15.3018,9.1289 C16.1807,9.1289 17.0068,8.7034 17.0068,7.7193 L17.0068,7.7193 Z M15.8818,2.3203 C15.8818,1.0703 14.8711,0.0625 13.6318,0.0625 C12.3926,0.0625 11.3818,1.0703 11.3818,2.3203 C11.3818,3.5703 12.3926,4.5898 13.6318,4.5898 C14.8711,4.5898 15.8818,3.5703 15.8818,2.3203 L15.8818,2.3203 Z" id="Shape"></path>
                            </g>
                        </g>
                    </g>
                </g>
            </g>
        </g>
    </g>
</svg>