<?xml version="1.0" encoding="UTF-8"?>
<svg width="88px" height="19px" viewBox="0 0 88 19" version="1.1" xmlns="http://www.w3.org/2000/svg" xmlns:xlink="http://www.w3.org/1999/xlink">
    <!-- Generator: Sketch 42 (36781) - http://www.bohemiancoding.com/sketch -->
    <title>Index.fw-Str%E1nka%201</title>
    <desc>Created with Sketch.</desc>
    <defs></defs>
    <g id="Page-1" stroke="none" stroke-width="1" fill="none" fill-rule="evenodd">
        <g id="Artboard" transform="translate(-13.000000, -19.000000)">
            <g id="logo" transform="translate(13.000000, 19.000000)">
                <g id="Index.fw-Str%E1nka%201">
                    <path d="M0.176,6.984 L4.016,6.984 L4.016,18 L0.176,18 L0.176,6.984 Z M6.608,6.984 L10.472,6.984 C10.472,7.19200104 10.468,7.40799888 10.46,7.632 C10.452,7.85600112 10.3920006,8.11199856 10.28,8.4 C11.480006,7.199994 12.7439934,6.6 14.072,6.6 C15.4320068,6.6 16.4479966,7.17599424 17.12,8.328 C17.6480026,9.27200472 17.912,10.4799926 17.912,11.952 L17.912,18 L14.096,18 L14.096,11.88 C14.096,10.4079926 13.5600054,9.672 12.488,9.672 C12.1519983,9.672 11.784002,9.77999892 11.384,9.996 C10.983998,10.2120011 10.6720011,10.4559986 10.448,10.728 L10.448,18 L6.608,18 L6.608,6.984 Z M23.288,6.984 L25.232,12.36 L27.224,6.984 L31.304,6.984 L26.48,18 L24.032,18 L19.16,6.984 L23.288,6.984 Z M38.24,6.576 C40.0160089,6.576 41.5159939,7.12399452 42.74,8.22 C43.9640061,9.31600548 44.576,10.767991 44.576,12.576 C44.576,14.3040086 43.9400064,15.7079946 42.668,16.788 C41.3959936,17.8680054 39.8880087,18.408 38.144,18.408 C36.3839912,18.408 34.900006,17.8560055 33.692,16.752 C32.483994,15.6479945 31.88,14.200009 31.88,12.408 C31.88,10.6799914 32.4959938,9.2760054 33.728,8.196 C34.9600062,7.1159946 36.4639911,6.576 38.24,6.576 Z M38.312,15.6 C39.0480037,15.6 39.6239979,15.2720033 40.04,14.616 C40.4240019,14.0559972 40.616,13.4000038 40.616,12.648 C40.616,11.7679956 40.4320018,11.032003 40.064,10.44 C39.6159978,9.75199656 38.9680042,9.408 38.12,9.408 C37.3999964,9.408 36.8280021,9.72399684 36.404,10.356 C35.9799979,10.9880032 35.768,11.6719963 35.768,12.408 C35.768,13.2720043 35.971998,14.0199968 36.38,14.652 C36.788002,15.2840032 37.4319956,15.6 38.312,15.6 Z M47,6.984 L50.84,6.984 L50.84,18 L47,18 L47,6.984 Z M48.896,0.84 C49.4400027,0.84 49.9039981,1.03199808 50.288,1.416 C50.6720019,1.80000192 50.864,2.2719972 50.864,2.832 C50.864,3.34400256 50.660002,3.78399816 50.252,4.152 C49.843998,4.52000184 49.3840026,4.704 48.872,4.704 C48.3599974,4.704 47.9240018,4.50800196 47.564,4.116 C47.2039982,3.72399804 47.024,3.26400264 47.024,2.736 C47.024,2.22399744 47.2039982,1.78000188 47.564,1.404 C47.9240018,1.02799812 48.3679974,0.84 48.896,0.84 Z M62.744,10.32 C61.9599961,9.77599728 60.9840058,9.504 59.816,9.504 C58.9199955,9.504 58.172003,9.79599708 57.572,10.38 C56.971997,10.9640029 56.672,11.7039955 56.672,12.6 C56.672,13.4640043 56.9879968,14.1559974 57.62,14.676 C58.2520032,15.1960026 58.9999957,15.456 59.864,15.456 C60.5840036,15.456 61.6079934,15.1760028 62.936,14.616 L62.936,17.592 C61.6079934,18.1360027 60.4000054,18.408 59.312,18.408 C57.503991,18.408 55.9760062,17.904005 54.728,16.896 C53.3999934,15.8079946 52.736,14.368009 52.736,12.576 C52.736,10.8639914 53.3599938,9.41600592 54.608,8.232 C55.808006,7.12799448 57.2959911,6.576 59.072,6.576 C60.4960071,6.576 61.7199949,6.83199744 62.744,7.344 L62.744,10.32 Z M67.832,13.032 C67.9120004,13.8800042 68.2439971,14.5319977 68.828,14.988 C69.4120029,15.4440023 70.1359957,15.672 71,15.672 C72.3120066,15.672 73.7039926,15.2080046 75.176,14.28 L75.176,17.04 C73.2559904,17.9520046 71.5680073,18.408 70.112,18.408 C68.319991,18.408 66.820006,17.8440056 65.612,16.716 C64.403994,15.5879944 63.8,14.128009 63.8,12.336 C63.8,10.6719917 64.3799942,9.29600544 65.54,8.208 C66.7000058,7.11999456 68.1279915,6.576 69.824,6.576 C71.5360086,6.576 72.9359946,7.15199424 74.024,8.304 C75.032005,9.40800552 75.536,10.8479911 75.536,12.624 L75.536,12.936 L67.832,13.032 Z M71.672,10.776 C71.6239998,10.2639974 71.4280017,9.82400184 71.084,9.456 C70.7399983,9.08799816 70.3280024,8.904 69.848,8.904 C68.9359954,8.904 68.2960018,9.52799376 67.928,10.776 L71.672,10.776 Z" id="invoicer" fill="#FFFFFF"></path>
                    <path d="M77.792,6.984 L81.608,6.984 L81.608,8.28 L81.488,9.456 C82.4000046,7.55199048 83.4399942,6.6 84.608,6.6 C85.4880044,6.6 86.3519958,6.9199968 87.2,7.56 L85.616,10.92 C84.9279966,10.4239975 84.3520023,10.176 83.888,10.176 C83.3279972,10.176 82.7760027,10.7439943 82.232,11.88 C81.7839978,12.8240047 81.56,14.0239927 81.56,15.48 L81.584,16.728 L81.608,18 L77.792,18 L77.792,6.984 Z" id="invoicer" fill="#1598E6"></path>
                    <path d="M0,3 C0,1.8954 0.8954,1 2,1 C3.1046,1 4,1.8954 4,3 C4,4.1046 3.1046,5 2,5 C0.8954,5 0,4.1046 0,3 Z" id="Elipsa" fill="#1598E6" fill-rule="nonzero"></path>
                </g>
            </g>
        </g>
    </g>
</svg>