<?xml version="1.0" encoding="UTF-8"?>
<svg width="66px" height="94px" viewBox="0 0 66 94" version="1.1" xmlns="http://www.w3.org/2000/svg" xmlns:xlink="http://www.w3.org/1999/xlink">
    <!-- Generator: Sketch 42 (36781) - http://www.bohemiancoding.com/sketch -->
    <title>Group</title>
    <desc>Created with Sketch.</desc>
    <defs></defs>
    <g id="Page-1" stroke="none" stroke-width="1" fill="none" fill-rule="evenodd">
        <g id="Group" fill-rule="nonzero" fill="#91A0AD">
            <path d="M60.3569483,0 L5.64305173,0 C2.53161808,0 0,2.54260262 0,5.66795547 L0,88.3320445 C0,91.4573974 2.53143099,94 5.64305173,94 L50.3548959,94 C50.8759628,94 51.3755135,93.7919689 51.7440958,93.4221358 L65.4246748,79.6809942 C65.79307,79.3109731 66,78.8090299 66,78.2858514 L66,5.66795547 C66,2.54260262 63.468569,0 60.3569483,0 Z M52,89 L52,81.7206064 C52,80.7719345 52.7717467,80 53.7206064,80 L61,80 L52,89 Z M5.70981828,3 L60.2901817,3 C61.2330921,3 63,4.78994545 63,5.7611804 L63,12 L3,12 L3,5.7611804 C3,4.78994545 4.76709455,3 5.70981828,3 Z M3,88.286326 L3,15 L63,15 L63,77.3218476 L53.9822755,77.3218476 C50.8782489,77.3218476 49.3529961,78.8527949 49.3529961,81.9638212 L49.3529961,91 L5.70981828,91 C4.76709455,91 3,89.2311756 3,88.286326 Z" id="Shape"></path>
            <path d="M11.9873817,29 L38.0126183,29 C39.1102208,29 40,28.3284286 40,27.5 C40,26.6715714 39.1102208,26 38.0126183,26 L11.9873817,26 C10.8897792,26 10,26.6715714 10,27.5 C10,28.3284286 10.8897792,29 11.9873817,29 Z" id="Shape"></path>
            <path d="M46.0442478,29 L52.9557522,29 C54.0847611,29 55,28.3284286 55,27.5 C55,26.6715714 54.0847611,26 52.9557522,26 L46.0442478,26 C44.9152389,26 44,26.6715714 44,27.5 C44,28.3284286 44.9152389,29 46.0442478,29 Z" id="Shape"></path>
            <path d="M11.9873817,45 L38.0126183,45 C39.1102208,45 40,44.3284286 40,43.5 C40,42.6715714 39.1102208,42 38.0126183,42 L11.9873817,42 C10.8897792,42 10,42.6715714 10,43.5 C10,44.3284286 10.8897792,45 11.9873817,45 Z" id="Shape"></path>
            <path d="M46.0442478,45 L52.9557522,45 C54.0847611,45 55,44.3284286 55,43.5 C55,42.6715714 54.0847611,42 52.9557522,42 L46.0442478,42 C44.9152389,42 44,42.6715714 44,43.5 C44,44.3284286 44.9152389,45 46.0442478,45 Z" id="Shape"></path>
            <path d="M40,59.5 C40,58.6715714 39.1102208,58 38.0126183,58 L11.9873817,58 C10.8897792,58 10,58.6715714 10,59.5 C10,60.3284286 10.8897792,61 11.9873817,61 L38.0126183,61 C39.1102208,61 40,60.3284286 40,59.5 Z" id="Shape"></path>
            <path d="M46.0442478,61 L52.9557522,61 C54.0847611,61 55,60.3284286 55,59.5 C55,58.6715714 54.0847611,58 52.9557522,58 L46.0442478,58 C44.9152389,58 44,58.6715714 44,59.5 C44,60.3284286 44.9152389,61 46.0442478,61 Z" id="Shape"></path>
            <path d="M53.0041322,72 C54.1064215,72 55,71.3284286 55,70.5 C55,69.6715714 54.1064215,69 53.0041322,69 L33.9958678,69 C32.8935785,69 32,69.6715714 32,70.5 C32,71.3284286 32.8935785,72 33.9958678,72 L53.0041322,72 Z" id="Shape"></path>
        </g>
    </g>
</svg>