<?xml version="1.0" encoding="UTF-8"?>
<svg width="105px" height="82px" viewBox="0 0 105 82" version="1.1" xmlns="http://www.w3.org/2000/svg" xmlns:xlink="http://www.w3.org/1999/xlink">
    <!-- Generator: Sketch 42 (36781) - http://www.bohemiancoding.com/sketch -->
    <title>Group</title>
    <desc>Created with Sketch.</desc>
    <defs></defs>
    <g id="Page-1" stroke="none" stroke-width="1" fill="none" fill-rule="evenodd">
        <g id="Group" fill-rule="nonzero" fill="#91A0AD">
            <path d="M8.5,10 C8.894,10 9.282,9.84 9.56,9.56 C9.84,9.282 10,8.894 10,8.5 C10,8.104 9.84,7.718 9.56,7.44 C9.282,7.16 8.894,7 8.5,7 C8.106,7 7.718,7.16 7.44,7.44 C7.16,7.718 7,8.106 7,8.5 C7,8.894 7.16,9.282 7.44,9.56 C7.718,9.84 8.104,10 8.5,10 Z" id="Shape"></path>
            <path d="M13.5,10 C13.894,10 14.282,9.84 14.56,9.56 C14.84,9.282 15,8.894 15,8.5 C15,8.106 14.84,7.718 14.56,7.44 C14.282,7.16 13.894,7 13.5,7 C13.106,7 12.718,7.16 12.44,7.44 C12.16,7.718 12,8.106 12,8.5 C12,8.894 12.16,9.282 12.44,9.56 C12.718,9.84 13.106,10 13.5,10 Z" id="Shape"></path>
            <path d="M17.5,10 C17.894,10 18.282,9.84 18.56,9.56 C18.84,9.282 19,8.894 19,8.5 C19,8.106 18.84,7.718 18.56,7.44 C18.282,7.16 17.894,7 17.5,7 C17.106,7 16.718,7.16 16.44,7.44 C16.16,7.718 16,8.106 16,8.5 C16,8.894 16.16,9.282 16.44,9.56 C16.718,9.84 17.106,10 17.5,10 Z" id="Shape"></path>
            <path d="M24.5517241,10 L87.4482759,10 C88.3052414,10 89,9.3284 89,8.5 C89,7.6716 88.3052414,7 87.4482759,7 L24.5517241,7 C23.6947586,7 23,7.6716 23,8.5 C23,9.3284 23.6947586,10 24.5517241,10 Z" id="Shape"></path>
            <path d="M93.4516129,10 L96.5483871,10 C97.3500645,10 98,9.3284 98,8.5 C98,7.6716 97.3500645,7 96.5483871,7 L93.4516129,7 C92.6499355,7 92,7.6716 92,8.5 C92,9.3284 92.6499355,10 93.4516129,10 Z" id="Shape"></path>
            <path d="M53.6202532,35 L50.3797468,35 C46.8619747,35 44,37.928045 44,41.527027 L44,51.472973 C44,55.071955 46.8619747,58 50.3797468,58 L53.6202532,58 C57.1380253,58 60,55.071955 60,51.472973 L60,41.527027 C60,37.928045 57.1380253,35 53.6202532,35 Z M57,51.537037 C57,53.4464938 55.4893878,55 53.6326531,55 L50.3673469,55 C48.5106122,55 47,53.4464938 47,51.537037 L47,41.462963 C47,39.5535062 48.5106122,38 50.3673469,38 L53.6326531,38 C55.4893878,38 57,39.5535062 57,41.462963 L57,51.537037 Z" id="Shape"></path>
            <path d="M41.4482901,49.919089 L39.6896855,49.919089 L39.6896855,36.5545055 C39.6896855,35.6962714 38.9949333,35.0004842 38.1379756,35.0004842 C37.281018,35.0004842 36.5862657,35.6962714 36.5862657,36.5545055 L36.5862657,49.919089 L28.7048207,49.919089 L32.9894021,37.0459907 C33.2604341,36.2318907 32.8209899,35.351693 32.0078939,35.0802573 C31.1950048,34.8086144 30.3161163,35.2489204 30.0450843,36.0630204 L25.0796126,50.9816252 C24.9219589,51.4554981 25.0011995,51.9764061 25.292921,52.3816949 C25.5846425,52.7869836 26.053052,53.0271317 26.551875,53.0271317 L36.5862657,53.0271317 L36.5862657,56.4459787 C36.5862657,57.3042128 37.281018,58 38.1379756,58 C38.9949333,58 39.6896855,57.3042128 39.6896855,56.4459787 L39.6896855,53.0271317 L41.4482901,53.0271317 C42.3052478,53.0271317 43,52.3313446 43,51.4731104 C43,50.6148762 42.3052478,49.919089 41.4482901,49.919089 Z" id="Shape"></path>
            <path d="M78.4482901,49.919089 L76.6896855,49.919089 L76.6896855,36.5545055 C76.6896855,35.6962714 75.9949333,35.0004842 75.1379756,35.0004842 C74.281018,35.0004842 73.5862657,35.6962714 73.5862657,36.5545055 L73.5862657,49.919089 L65.7048207,49.919089 L69.9894021,37.0459907 C70.2604341,36.2318907 69.8209899,35.351693 69.0078939,35.0802573 C68.1950048,34.8086144 67.3161163,35.2489204 67.0450843,36.0630204 L62.0796126,50.9816252 C61.9219589,51.4554981 62.0011995,51.9764061 62.292921,52.3816949 C62.5846425,52.7869836 63.053052,53.0271317 63.551875,53.0271317 L73.5862657,53.0271317 L73.5862657,56.4459787 C73.5862657,57.3042128 74.281018,58 75.1379756,58 C75.9949333,58 76.6896855,57.3042128 76.6896855,56.4459787 L76.6896855,53.0271317 L78.4482901,53.0271317 C79.3052478,53.0271317 80,52.3313446 80,51.4731104 C80,50.6148762 79.3052478,49.919089 78.4482901,49.919089 Z" id="Shape"></path>
            <path d="M96.8835616,0 L8.11643836,0 C3.64109589,0 0,3.64170426 0,8.11779449 L0,73.8822055 C0,78.3582957 3.64109589,82 8.11643836,82 L96.8835616,82 C101.358904,82 105,78.3582957 105,73.8822055 L105,8.11779449 C105,3.64170426 101.358904,0 96.8835616,0 Z M8.04261954,3 L96.9573805,3 C99.7378191,3 102,5.24306122 102,8 L102,13 L3,13 L3,8 C3,5.24306122 5.26218087,3 8.04261954,3 Z M96.9573805,79 L8.04261954,79 C5.26218087,79 3,76.7297279 3,73.9393443 L3,16 L102,16 L102,73.9393443 C102,76.7297279 99.7378191,79 96.9573805,79 Z" id="Shape"></path>
        </g>
    </g>
</svg>