<?xml version="1.0" encoding="UTF-8"?>
<svg width="88px" height="103px" viewBox="0 0 88 103" version="1.1" xmlns="http://www.w3.org/2000/svg" xmlns:xlink="http://www.w3.org/1999/xlink">
    <!-- Generator: Sketch 42 (36781) - http://www.bohemiancoding.com/sketch -->
    <title>Group 2</title>
    <desc>Created with Sketch.</desc>
    <defs></defs>
    <g id="Page-1" stroke="none" stroke-width="1" fill="none" fill-rule="evenodd">
        <g id="Group-2" fill-rule="nonzero" fill="#91A0AD">
            <path d="M84.6812409,84.8406204 C84.6812409,62.2849686 66.3962723,44 43.8406204,44 C21.2849686,44 3,62.2849686 3,84.8406204 C3,93.4641701 20.7512503,100 43.8406204,100 C66.9299906,100 84.6812409,93.4641701 84.6812409,84.8406204 Z M87.6812409,84.8406204 C87.6812409,109.053127 0,109.053127 0,84.8406204 C0,60.6281143 19.6281143,41 43.8406204,41 C68.0531265,41 87.6812409,60.6281143 87.6812409,84.8406204 Z" id="Oval"></path>
            <path d="M44,41 C54.4934102,41 63,32.4934102 63,22 C63,11.5065898 54.4934102,3 44,3 C33.5065898,3 25,11.5065898 25,22 C25,32.4934102 33.5065898,41 44,41 Z M44,44 C31.8497355,44 22,34.1502645 22,22 C22,9.8497355 31.8497355,0 44,0 C56.1502645,0 66,9.8497355 66,22 C66,34.1502645 56.1502645,44 44,44 Z" id="Oval-Copy"></path>
        </g>
    </g>
</svg>