<?xml version="1.0" encoding="UTF-8"?>
<svg width="14px" height="12px" viewBox="0 0 14 12" version="1.1" xmlns="http://www.w3.org/2000/svg" xmlns:xlink="http://www.w3.org/1999/xlink">
    <!-- Generator: Sketch 42 (36781) - http://www.bohemiancoding.com/sketch -->
    <title></title>
    <desc>Created with Sketch.</desc>
    <defs></defs>
    <g id="Page-1" stroke="none" stroke-width="1" fill="none" fill-rule="evenodd">
        <g id="Artboard" transform="translate(-110.000000, -80.000000)" fill="#FFFFFF">
            <path d="M115.714286,91.1428571 C115.714286,91.1666668 115.717262,91.22619 115.723214,91.3214286 C115.729167,91.4166671 115.730655,91.4955354 115.727679,91.5580357 C115.724702,91.620536 115.715774,91.6904758 115.700893,91.7678571 C115.686012,91.8452385 115.65625,91.9032736 115.611607,91.9419643 C115.566964,91.980655 115.505953,92 115.428571,92 L112.571429,92 C111.863092,92 111.257443,91.7485144 110.754464,91.2455357 C110.251486,90.742557 110,90.1369083 110,89.4285714 L110,83.1428571 C110,82.4345203 110.251486,81.8288716 110.754464,81.3258929 C111.257443,80.8229142 111.863092,80.5714286 112.571429,80.5714286 L115.428571,80.5714286 C115.505953,80.5714286 115.572916,80.5997021 115.629464,80.65625 C115.686012,80.7127979 115.714286,80.7797615 115.714286,80.8571429 C115.714286,80.8809525 115.717262,80.9404757 115.723214,81.0357143 C115.729167,81.1309529 115.730655,81.2098211 115.727679,81.2723214 C115.724702,81.3348217 115.715774,81.4047615 115.700893,81.4821429 C115.686012,81.5595242 115.65625,81.6175593 115.611607,81.65625 C115.566964,81.6949407 115.505953,81.7142857 115.428571,81.7142857 L112.571429,81.7142857 C112.178569,81.7142857 111.842263,81.8541653 111.5625,82.1339286 C111.282737,82.4136919 111.142857,82.749998 111.142857,83.1428571 L111.142857,89.4285714 C111.142857,89.8214305 111.282737,90.1577367 111.5625,90.4375 C111.842263,90.7172633 112.178569,90.8571429 112.571429,90.8571429 L115.357143,90.8571429 C115.375,90.8571429 115.409226,90.860119 115.459821,90.8660714 C115.510417,90.8720238 115.544643,90.8809523 115.5625,90.8928571 C115.580357,90.904762 115.604167,90.9211308 115.633929,90.9419643 C115.663691,90.9627977 115.684524,90.9895832 115.696429,91.0223214 C115.708333,91.0550597 115.714286,91.0952379 115.714286,91.1428571 Z M124,86.2857143 C124,86.440477 123.943453,86.5744042 123.830357,86.6875 L118.973214,91.5446429 C118.860118,91.6577387 118.726191,91.7142857 118.571429,91.7142857 C118.416666,91.7142857 118.282739,91.6577387 118.169643,91.5446429 C118.056547,91.4315471 118,91.2976198 118,91.1428571 L118,88.5714286 L114,88.5714286 C113.845237,88.5714286 113.71131,88.5148815 113.598214,88.4017857 C113.485118,88.2886899 113.428571,88.1547627 113.428571,88 L113.428571,84.5714286 C113.428571,84.4166659 113.485118,84.2827387 113.598214,84.1696429 C113.71131,84.0565471 113.845237,84 114,84 L118,84 L118,81.4285714 C118,81.2738088 118.056547,81.1398815 118.169643,81.0267857 C118.282739,80.9136899 118.416666,80.8571429 118.571429,80.8571429 C118.726191,80.8571429 118.860118,80.9136899 118.973214,81.0267857 L123.830357,85.8839286 C123.943453,85.9970244 124,86.1309516 124,86.2857143 Z" id=""></path>
        </g>
    </g>
</svg>